<svg version="1.2" xmlns="http://www.w3.org/2000/svg" viewBox="0 0 1000 1000" width="150" height="150">
	<style>
		.s0 { fill: #0000ff } 
	</style>
	<g id="Logo">
		<path id="Left" fill-rule="evenodd" class="s0" d="m154.43 306.41h153l37.36 75.73c20.55 41.78 37.87 75.23 38.55 74.72 0.68-0.68 5.77-9.51 11.37-19.7 5.61-10.19 10.87-18.85 11.72-19.02 0.68-0.34 6.12 8.33 11.89 19.36l10.36 19.7-5.44 10.87c-3.05 5.77-12.56 24.11-21.39 40.42-48.06 89.83-55.53 104.09-55.53 105.62 0 0.85 4.07 10.36 9.17 21.06l9.34 19.36h38.38l11.2-20.89c26.83-49.59 62.66-118.19 62.66-120.06 0-1.19-12.73-26.15-28.35-55.7-15.8-29.55-29.21-55.7-30.06-58.25-1.19-3.9 0.85-9 15.62-36.68 9.34-17.49 20.04-37.36 23.61-43.81l6.45-11.89h72.68l23.43 43.31c12.91 23.77 23.61 44.32 23.61 45.68 0 2.38-4.59 11.38-41.95 81.68-11.2 21.06-30.9 58.08-43.81 82.36-12.9 24.28-25.47 47.89-28.02 52.64-7.81 14.27-21.39 39.74-32.09 60.29l-10.19 19.53-44.15 0.5-43.99 0.34-18.85-38.37c-10.35-21.23-18.84-39.91-18.84-41.61 0-1.87 5.26-13.07 11.71-24.96 6.46-11.89 19.53-36.17 29.04-53.83l17.15-32.27-25.3-50.94c-13.93-28.02-31.25-63.34-38.55-78.63l-13.41-27.51h-32.78c-18 0-32.77 0.34-32.77 0.85 0 0.51 13.92 29.72 30.73 65.04 28.87 59.78 39.57 82.19 58.93 122.61l7.64 16.13-10.7 20.72c-5.94 11.55-11.37 20.89-12.22 20.89-0.85 0-3.74-4.76-6.29-10.7-2.71-5.78-11.88-25.14-20.54-42.8-8.66-17.83-23.27-48.39-32.61-67.92-9.34-19.7-21.4-44.83-26.83-56.04-38.55-80.66-48.06-100.7-49.42-104.1zm357.97 39.06h-12.22l-12.06 0.17-12.73 23.94c-6.97 13.25-12.91 25.14-13.25 26.32-0.68 2.38 36.51 73.53 38.38 73.53 0.68 0 6.96-10.86 13.92-24.11 6.96-13.25 15.63-29.72 19.19-36.34l6.62-12.4-13.92-25.47z"/>
		<path id="Right" class="s0" d="m693.93 307.59c-0.85 1.53-57.57 115.14-68.27 136.71-3.56 7.3-6.96 13.24-7.47 13.24-0.51 0-5.6-9-11.38-19.87-5.6-10.87-11.03-20.04-11.88-20.37-1.87-0.51-21.23 36.51-21.06 40.41 0 2.89 8.49 19.19 59.43 114.12l22.42 42.11-9.17 19.87-9.34 19.87-19.7 0.51-19.53 0.51-20.88-39.57c-11.55-21.74-24.63-46.53-29.04-54.85-4.59-8.49-9.51-17.83-11.04-20.89-1.53-3.05-3.57-5.26-4.42-4.92-0.67 0.17-6.11 9.34-11.71 20.21l-10.36 19.69 26.83 50.61c14.77 28.02 29.04 54.85 31.92 59.77l4.93 8.83 44.15-0.34 44.15-0.5 18.51-38.21c10.02-21.06 18.34-39.4 18.51-40.76 0-1.36-13.07-27-29.04-56.89l-28.86-54.17 38.71-78.62 38.72-78.63h32.78c25.64 0 32.77 0.51 32.09 2.04-0.51 1.19-16.64 34.98-36 75.23-19.36 40.08-40.76 84.74-47.72 99.17-6.96 14.44-12.56 27.34-12.56 28.87 0 1.53 4.92 11.89 11.03 23.09l10.87 20.38 19.02-39.05c10.36-21.57 22.08-46.02 26.15-54.35 6.12-13.07 33.97-71.32 74.21-155.38 12.23-25.3 16.64-35.32 16.64-37.53 0-1.86-150.62-2.2-151.64-0.34z"/>
	</g>
</svg>